<svg width="500" height="200" viewBox="0 0 500 200" xmlns="http://www.w3.org/2000/svg">
  <defs>
    <style>
      .title { font: 600 18px 'Segoe UI', Ubuntu, Sans-Serif; fill: #7dcfff; }
      .lang-name { font: 400 11px 'Segoe UI', Ubuntu, Sans-Serif; fill: #a9b1d6; }
      .lang-percent { font: 600 11px 'Segoe UI', Ubuntu, Sans-Serif; fill: #c0caf5; }
    </style>
  </defs>
  
  <rect width="500" height="200" rx="8" fill="#1a1b26" stroke="#414868" stroke-width="1"/>
  <text x="250" y="25" class="title" text-anchor="middle">Most Used Languages</text>
  
  <g transform="translate(20, 40)"><rect y="10" width="460" height="20" fill="#24283b" stroke="#414868" stroke-width="1" rx="10"/><rect x="0" y="10" width="290.15861689542896" height="20" fill="#f1e05a" rx="10" style="border-top-right-radius: 0; border-bottom-right-radius: 0;"/><rect x="290.15861689542896" y="10" width="89.74806793684225" height="20" fill="#3178c6" /><rect x="379.9066848322712" y="10" width="27.911173499625747" height="20" fill="#663399" /><rect x="407.81785833189696" y="10" width="21.207404294103338" height="20" fill="#A97BFF" /><rect x="429.0252626260003" y="10" width="16.13184073140957" height="20" fill="#e34c26" /><rect x="445.1571033574099" y="10" width="7.025597918353951" height="20" fill="#F05138" /><rect x="452.1827012757638" y="10" width="3.7139011737593592" height="20" fill="#c6538c" /><rect x="455.8966024495232" y="10" width="2.3855838455199514" height="20" fill="#AA6746" />
    <g transform="translate(0, 50)">
      <circle cx="5" cy="5" r="5" fill="#f1e05a"/>
      <text x="20" y="9" class="lang-name">JavaScript</text>
      <text x="455" y="9" class="lang-percent" text-anchor="end">63.1%</text>
    </g>
    <g transform="translate(0, 70)">
      <circle cx="5" cy="5" r="5" fill="#3178c6"/>
      <text x="20" y="9" class="lang-name">TypeScript</text>
      <text x="455" y="9" class="lang-percent" text-anchor="end">19.5%</text>
    </g>
    <g transform="translate(0, 90)">
      <circle cx="5" cy="5" r="5" fill="#663399"/>
      <text x="20" y="9" class="lang-name">CSS</text>
      <text x="455" y="9" class="lang-percent" text-anchor="end">6.1%</text>
    </g>
    <g transform="translate(0, 110)">
      <circle cx="5" cy="5" r="5" fill="#A97BFF"/>
      <text x="20" y="9" class="lang-name">Kotlin</text>
      <text x="455" y="9" class="lang-percent" text-anchor="end">4.6%</text>
    </g>
    <g transform="translate(0, 130)">
      <circle cx="5" cy="5" r="5" fill="#e34c26"/>
      <text x="20" y="9" class="lang-name">HTML</text>
      <text x="455" y="9" class="lang-percent" text-anchor="end">3.5%</text>
    </g>
    <g transform="translate(0, 150)">
      <circle cx="5" cy="5" r="5" fill="#F05138"/>
      <text x="20" y="9" class="lang-name">Swift</text>
      <text x="455" y="9" class="lang-percent" text-anchor="end">1.5%</text>
    </g>
    <g transform="translate(0, 170)">
      <circle cx="5" cy="5" r="5" fill="#c6538c"/>
      <text x="20" y="9" class="lang-name">SCSS</text>
      <text x="455" y="9" class="lang-percent" text-anchor="end">0.8%</text>
    </g>
    <g transform="translate(0, 190)">
      <circle cx="5" cy="5" r="5" fill="#AA6746"/>
      <text x="20" y="9" class="lang-name">Solidity</text>
      <text x="455" y="9" class="lang-percent" text-anchor="end">0.5%</text>
    </g></g></svg>